# xmcd
#
# Track frame offsets:
#	150
#	51300
#	68100
#	89475
#	111300
#	164025
#	206475
#	229350
#
# Disc length: 3433 seconds
#
# Revision: 1
# Processed by: cddbd v1.5.1PL2 Copyright (c) Steve Scherf et al.
# Submitted via: EasyCDDAExtractor 9.0.0.1
#
DISCID=770d6708
DTITLE=Blue Oyster Cult - The Edge Palo Alto CA 28-01-96 Disc 2
DYEAR=1996
DGENRE=Hard Rock
TTITLE0=Astronomy
TTITLE1=In Thee
TTITLE2=Lips In The Hill
TTITLE3=Burnin For You
TTITLE4=Godzilla
TTITLE5=(Don't Fear) The Reaper
TTITLE6=Dominance And Submission
TTITLE7=The Red And The Black
EXTD=
EXTT0=
EXTT1=
EXTT2=
EXTT3=
EXTT4=
EXTT5=
EXTT6=
EXTT7=
PLAYORDER=
